<?xml version="1.0" standalone="no"?>
<!DOCTYPE svg PUBLIC "-//W3C//DTD SVG 20010904//EN"
 "http://www.w3.org/TR/2001/REC-SVG-20010904/DTD/svg10.dtd">
<svg version="1.0" xmlns="http://www.w3.org/2000/svg"
 width="310.000000pt" height="112.000000pt" viewBox="0 0 310.000000 112.000000"
 preserveAspectRatio="xMidYMid meet">

<g transform="translate(0.000000,112.000000) scale(0.100000,-0.100000)"
fill="#000000" stroke="none">
<path d="M0 560 l0 -560 1550 0 1550 0 0 560 0 560 -1550 0 -1550 0 0 -560z
m3050 0 l0 -500 -1500 0 -1500 0 0 500 0 500 1500 0 1500 0 0 -500z"/>
<path d="M730 965 c0 -12 14 -15 65 -15 51 0 65 3 65 15 0 12 -14 15 -65 15
-51 0 -65 -3 -65 -15z"/>
<path d="M920 965 c0 -13 11 -15 63 -13 34 2 62 8 62 13 0 6 -28 11 -62 13
-52 2 -63 0 -63 -13z"/>
<path d="M817 909 c-53 -12 -113 -45 -131 -71 -29 -41 -22 -48 57 -48 65 0 73
2 82 22 16 36 58 52 100 38 39 -13 55 -35 55 -74 0 -23 -4 -26 -32 -26 -52 0
-167 -28 -214 -51 -58 -27 -87 -70 -87 -125 0 -55 24 -91 76 -115 64 -28 133
-25 203 11 32 16 60 30 61 30 1 0 3 -10 5 -22 3 -21 9 -23 74 -26 l70 -3 -3
123 c-5 153 -19 252 -41 290 -29 50 -165 73 -275 47z m160 -279 c-7 -51 -30
-88 -65 -101 -31 -12 -85 -4 -100 14 -51 64 13 121 142 126 28 1 28 0 23 -39z"/>
<path d="M1310 907 c-48 -15 -113 -83 -128 -133 -25 -85 -13 -187 30 -251 66
-97 276 -115 366 -30 24 22 62 88 62 107 0 6 -29 10 -72 10 l-73 0 -17 -40
c-19 -47 -57 -61 -97 -39 -39 22 -51 56 -51 144 0 89 12 122 52 144 35 20 78
6 96 -32 12 -26 17 -27 83 -27 41 0 69 4 69 10 0 24 -41 90 -67 108 -57 40
-175 54 -253 29z"/>
<path d="M2282 907 c-92 -35 -142 -113 -142 -223 1 -157 94 -244 259 -244 84
0 155 31 199 88 18 22 32 43 32 46 0 3 -28 6 -61 6 -54 0 -66 -4 -96 -30 -73
-64 -183 -19 -183 75 l0 25 181 0 182 0 -6 60 c-6 75 -39 135 -95 174 -39 28
-50 31 -140 33 -59 2 -110 -2 -130 -10z m179 -96 c17 -17 29 -40 29 -55 l0
-26 -94 0 c-56 0 -98 4 -101 11 -11 17 16 69 44 84 44 24 89 19 122 -14z"/>
<path d="M1905 799 l-80 -102 -3 92 -3 91 -74 0 -75 0 0 -220 0 -220 75 0 75
0 2 93 c0 50 1 98 1 105 -1 24 13 10 95 -94 l83 -104 89 0 c50 0 90 2 90 5 0
3 -40 57 -90 121 -49 64 -90 121 -90 126 0 6 35 50 78 100 42 49 79 93 80 99
2 5 -33 9 -85 9 l-88 0 -80 -101z"/>
<path d="M2927 886 c-26 -7 -60 -25 -76 -40 -15 -14 -29 -26 -32 -26 -2 0 -4
16 -3 35 l2 35 -69 0 -69 0 0 -225 0 -225 75 0 75 0 0 125 c0 152 11 188 67
211 21 9 51 14 69 11 l32 -5 4 54 c2 38 -1 55 -10 59 -8 3 -14 5 -15 4 -1 0
-24 -6 -50 -13z"/>
<path d="M130 665 l0 -225 70 0 70 0 0 90 0 90 95 0 95 0 0 -90 0 -90 75 0 74
0 -2 223 -2 222 -72 3 -73 3 0 -91 0 -90 -95 0 -95 0 0 90 0 90 -70 0 -70 0 0
-225z"/>
<path d="M2740 316 c0 -19 -4 -23 -20 -19 -31 8 -50 -15 -50 -59 0 -42 21 -59
67 -50 22 4 23 9 23 78 0 43 -4 74 -10 74 -5 0 -10 -11 -10 -24z m-2 -75 c-2
-28 -7 -36 -23 -36 -15 0 -21 8 -23 34 -4 35 11 53 35 44 9 -4 13 -18 11 -42z"/>
<path d="M137 323 c-4 -3 -7 -35 -7 -70 0 -47 4 -63 14 -63 7 0 16 10 20 23
l6 22 15 -22 c9 -13 23 -23 31 -23 12 0 11 6 -5 29 -18 25 -19 30 -6 41 8 7
15 16 15 21 0 14 -22 10 -42 -8 -17 -15 -18 -14 -18 20 0 35 -8 45 -23 30z"/>
<path d="M290 316 c0 -9 7 -16 16 -16 17 0 14 22 -4 28 -7 2 -12 -3 -12 -12z"/>
<path d="M647 323 c-3 -5 -5 -36 -5 -70 0 -48 3 -63 14 -63 8 0 14 10 14 24 0
35 10 56 26 56 10 0 14 -12 14 -40 0 -30 4 -40 16 -40 12 0 14 10 12 48 -3 46
-4 47 -35 46 -29 -2 -33 1 -33 22 0 23 -14 33 -23 17z"/>
<path d="M382 299 c-10 -15 -11 -24 -3 -32 6 -6 11 -26 11 -44 0 -29 3 -33 28
-33 24 1 25 2 10 14 -21 15 -23 47 -6 64 10 10 10 15 -1 21 -7 5 -10 14 -7 20
4 6 1 11 -6 11 -7 0 -19 -10 -26 -21z"/>
<path d="M2270 255 c0 -37 4 -65 10 -65 6 0 10 26 11 58 l1 57 25 -57 c24 -53
52 -77 54 -45 0 6 11 35 23 62 l24 50 -6 -62 c-4 -50 -2 -63 9 -63 11 0 14 16
13 63 0 54 -3 62 -19 62 -13 0 -25 -16 -41 -55 l-22 -55 -11 30 c-28 75 -34
85 -52 85 -17 0 -19 -8 -19 -65z"/>
<path d="M1251 291 c-39 -39 -17 -98 32 -89 22 4 27 1 27 -15 0 -17 -5 -19
-36 -14 -25 4 -34 2 -31 -6 5 -17 55 -21 73 -6 20 16 20 139 0 139 -8 0 -21 3
-29 6 -9 3 -25 -4 -36 -15z m54 -41 c0 -41 -27 -53 -45 -21 -14 27 4 64 28 59
12 -2 17 -13 17 -38z"/>
<path d="M1422 294 c-26 -18 -30 -75 -7 -94 18 -15 63 -16 76 -3 7 7 -2 10
-27 9 -29 -1 -39 3 -42 17 -3 14 4 17 37 17 47 0 54 17 21 50 -24 24 -29 24
-58 4z m48 -8 c0 -2 3 -11 6 -20 5 -13 -1 -16 -25 -16 -29 0 -41 16 -24 33 7
8 43 10 43 3z"/>
<path d="M1938 303 c-30 -8 -20 -21 13 -19 18 0 34 -5 36 -11 3 -8 -4 -13 -15
-13 -11 0 -30 -8 -42 -18 -34 -27 -10 -63 35 -52 6 2 18 2 28 2 26 -1 25 93
-2 108 -20 10 -25 11 -53 3z m50 -75 c-2 -17 -10 -23 -27 -23 -32 0 -39 23 -9
34 35 15 40 13 36 -11z"/>
<path d="M2113 303 c-21 -4 -23 -10 -23 -59 0 -66 18 -72 22 -6 3 40 6 47 26
50 20 3 22 0 22 -47 0 -28 5 -51 10 -51 14 0 12 94 -2 108 -12 12 -16 13 -55
5z"/>
<path d="M1560 245 c0 -30 5 -55 10 -55 6 0 10 18 10 41 0 32 4 42 20 46 11 3
20 9 20 14 0 13 -14 11 -28 -3 -9 -9 -12 -9 -12 0 0 7 -4 12 -10 12 -5 0 -10
-25 -10 -55z"/>
<path d="M1684 291 c-8 -9 -4 -101 5 -101 6 0 11 19 13 43 3 37 6 42 28 42 22
0 25 -5 28 -42 4 -57 22 -55 22 2 0 41 2 45 25 45 23 0 25 -4 25 -45 0 -25 5
-45 11 -45 6 0 9 19 7 46 -4 55 -26 77 -58 57 -12 -8 -21 -9 -25 -3 -6 9 -72
10 -81 1z"/>
<path d="M2515 289 c-11 -17 3 -23 20 -9 16 13 45 7 45 -10 0 -6 -13 -13 -30
-16 -35 -8 -53 -26 -44 -47 7 -18 28 -24 67 -19 24 4 27 8 27 46 0 23 -5 47
-12 54 -15 15 -64 16 -73 1z m63 -66 c-4 -20 -35 -30 -50 -15 -15 15 0 32 28
32 19 0 25 -5 22 -17z"/>
<path d="M2843 288 c-41 -53 -5 -117 57 -101 31 8 23 21 -12 19 -23 -1 -33 4
-36 17 -3 14 4 17 32 17 28 0 36 4 36 18 0 37 -55 58 -77 30z m57 -24 c0 -8
-10 -14 -25 -14 -26 0 -35 25 -12 33 18 6 37 -3 37 -19z"/>
<path d="M290 241 c0 -39 4 -51 16 -51 12 0 14 10 12 47 -4 66 -28 70 -28 4z"/>
<path d="M506 274 c-34 -34 -11 -84 39 -84 35 0 51 12 40 30 -5 8 -11 7 -21
-1 -21 -17 -46 -3 -42 23 3 19 8 23 37 20 29 -2 32 0 21 13 -16 20 -54 19 -74
-1z"/>
<path d="M822 278 c-17 -17 -15 -63 2 -77 18 -15 68 -11 74 6 2 9 -5 11 -27 7
-20 -4 -31 -2 -31 5 0 6 16 11 35 11 37 0 42 9 25 41 -12 22 -59 26 -78 7z
m53 -18 c3 -5 -3 -10 -14 -10 -12 0 -21 5 -21 10 0 6 6 10 14 10 8 0 18 -4 21
-10z"/>
<path d="M970 238 c0 -35 4 -48 14 -48 10 0 16 13 18 38 2 25 8 37 18 37 10 0
16 -12 18 -37 4 -53 32 -52 32 1 0 47 -14 60 -62 58 l-38 -1 0 -48z"/>
<path d="M1140 200 c0 -5 7 -10 16 -10 8 0 12 5 9 10 -3 6 -10 10 -16 10 -5 0
-9 -4 -9 -10z"/>
<path d="M2990 200 c0 -5 7 -10 15 -10 8 0 15 5 15 10 0 6 -7 10 -15 10 -8 0
-15 -4 -15 -10z"/>
</g>
</svg>
